<mxfile host="app.diagrams.net" agent="Mozilla/5.0 (Windows NT 10.0; Win64; x64) AppleWebKit/537.36 (KHTML, like Gecko) Chrome/130.0.0.0 Safari/537.36" version="24.8.3">
  <diagram name="Halaman-1" id="ib9RQs67SC0UWEGdiEnk">
    <mxGraphModel grid="1" page="1" gridSize="10" guides="1" tooltips="1" connect="1" arrows="1" fold="1" pageScale="1" pageWidth="827" pageHeight="1169" math="0" shadow="0">
      <root>
        <mxCell id="0" />
        <mxCell id="1" parent="0" />
        <mxCell id="xS0EgC6WdhsDoTeQ87Do-3" value="" style="endArrow=classic;html=1;rounded=0;exitX=0.5;exitY=1;exitDx=0;exitDy=0;" edge="1" parent="1">
          <mxGeometry width="50" height="50" relative="1" as="geometry">
            <mxPoint x="1222.5" y="120" as="sourcePoint" />
            <mxPoint x="1222.5" y="180" as="targetPoint" />
          </mxGeometry>
        </mxCell>
        <mxCell id="xS0EgC6WdhsDoTeQ87Do-4" value="&lt;div&gt;&lt;font style=&quot;font-size: 14px;&quot; face=&quot;Comic Sans MS&quot;&gt;&lt;br&gt;&lt;/font&gt;&lt;/div&gt;&lt;font style=&quot;&quot; face=&quot;Comic Sans MS&quot;&gt;&lt;div style=&quot;font-size: 14px;&quot;&gt;&lt;font style=&quot;&quot; face=&quot;Comic Sans MS&quot;&gt;&lt;br&gt;&lt;/font&gt;&lt;/div&gt;&lt;font style=&quot;font-size: 14px;&quot;&gt;Inisialisasi&lt;/font&gt;&lt;/font&gt;&lt;div style=&quot;text-align: left;&quot;&gt;&lt;span style=&quot;background-color: initial; font-family: &amp;quot;Comic Sans MS&amp;quot;; font-size: 14px;&quot;&gt;- Serial Monitor&lt;/span&gt;&lt;/div&gt;&lt;div style=&quot;text-align: left;&quot;&gt;&lt;span style=&quot;background-color: initial; font-family: &amp;quot;Comic Sans MS&amp;quot;; font-size: 14px;&quot;&gt;- SPI&lt;/span&gt;&lt;/div&gt;&lt;div&gt;&lt;div style=&quot;text-align: left;&quot;&gt;&lt;span style=&quot;background-color: initial; font-family: &amp;quot;Comic Sans MS&amp;quot;; font-size: 14px;&quot;&gt;- RFID Reader&lt;/span&gt;&lt;/div&gt;&lt;div style=&quot;text-align: left;&quot;&gt;&lt;span style=&quot;background-color: initial; font-family: &amp;quot;Comic Sans MS&amp;quot;; font-size: 14px;&quot;&gt;- LCD I2C&lt;/span&gt;&lt;/div&gt;&lt;div style=&quot;text-align: left;&quot;&gt;&lt;span style=&quot;background-color: initial; font-family: &amp;quot;Comic Sans MS&amp;quot;; font-size: 14px;&quot;&gt;- Pin LED&amp;nbsp;&lt;/span&gt;&lt;/div&gt;&lt;div&gt;&lt;div&gt;&lt;div style=&quot;text-align: left;&quot;&gt;&lt;font size=&quot;3&quot;&gt;&lt;br&gt;&lt;/font&gt;&lt;/div&gt;&lt;/div&gt;&lt;div&gt;&lt;div&gt;&lt;br&gt;&lt;/div&gt;&lt;/div&gt;&lt;/div&gt;&lt;/div&gt;" style="rounded=0;whiteSpace=wrap;html=1;" vertex="1" parent="1">
          <mxGeometry x="1118" y="180" width="210" height="120" as="geometry" />
        </mxCell>
        <mxCell id="xS0EgC6WdhsDoTeQ87Do-5" value="" style="endArrow=classic;html=1;rounded=0;exitX=0.5;exitY=1;exitDx=0;exitDy=0;" edge="1" parent="1">
          <mxGeometry width="50" height="50" relative="1" as="geometry">
            <mxPoint x="1222.5" y="300" as="sourcePoint" />
            <mxPoint x="1222.5" y="360" as="targetPoint" />
          </mxGeometry>
        </mxCell>
        <mxCell id="xS0EgC6WdhsDoTeQ87Do-6" value="&lt;font face=&quot;Comic Sans MS&quot;&gt;&lt;span style=&quot;font-size: 14px;&quot;&gt;Tampilkan Pesan di LCD&lt;/span&gt;&lt;/font&gt;&lt;div&gt;&lt;font face=&quot;Comic Sans MS&quot;&gt;&lt;span style=&quot;font-size: 14px;&quot;&gt;&#39;Scan a card&#39;&lt;/span&gt;&lt;/font&gt;&lt;/div&gt;" style="rounded=0;whiteSpace=wrap;html=1;" vertex="1" parent="1">
          <mxGeometry x="1140" y="360" width="166" height="60" as="geometry" />
        </mxCell>
        <mxCell id="xS0EgC6WdhsDoTeQ87Do-7" value="&lt;font face=&quot;Comic Sans MS&quot;&gt;&lt;span style=&quot;font-size: 14px;&quot;&gt;Ada&amp;nbsp;&lt;/span&gt;&lt;/font&gt;&lt;div&gt;&lt;font face=&quot;Comic Sans MS&quot;&gt;&lt;span style=&quot;font-size: 14px;&quot;&gt;Kartu?&lt;/span&gt;&lt;/font&gt;&lt;/div&gt;" style="rhombus;whiteSpace=wrap;html=1;" vertex="1" parent="1">
          <mxGeometry x="1171.5" y="480" width="105" height="100" as="geometry" />
        </mxCell>
        <mxCell id="xS0EgC6WdhsDoTeQ87Do-8" value="" style="endArrow=none;html=1;rounded=0;" edge="1" parent="1">
          <mxGeometry width="50" height="50" relative="1" as="geometry">
            <mxPoint x="1285" y="680.5" as="sourcePoint" />
            <mxPoint x="1330" y="681" as="targetPoint" />
          </mxGeometry>
        </mxCell>
        <mxCell id="xS0EgC6WdhsDoTeQ87Do-9" value="&lt;font style=&quot;font-size: 14px;&quot; face=&quot;Comic Sans MS&quot;&gt;Tidak&lt;/font&gt;" style="text;html=1;align=center;verticalAlign=middle;resizable=0;points=[];autosize=1;strokeColor=none;fillColor=none;" vertex="1" parent="1">
          <mxGeometry x="1320" y="590.5" width="60" height="30" as="geometry" />
        </mxCell>
        <mxCell id="xS0EgC6WdhsDoTeQ87Do-10" value="" style="endArrow=none;html=1;rounded=0;" edge="1" parent="1">
          <mxGeometry width="50" height="50" relative="1" as="geometry">
            <mxPoint x="1120" y="680.5" as="sourcePoint" />
            <mxPoint x="1120" y="530.5" as="targetPoint" />
          </mxGeometry>
        </mxCell>
        <mxCell id="xS0EgC6WdhsDoTeQ87Do-11" value="" style="endArrow=classic;html=1;rounded=0;entryX=0;entryY=0.5;entryDx=0;entryDy=0;" edge="1" parent="1" target="xS0EgC6WdhsDoTeQ87Do-16">
          <mxGeometry width="50" height="50" relative="1" as="geometry">
            <mxPoint x="1120" y="680.5" as="sourcePoint" />
            <mxPoint x="1155" y="680.5" as="targetPoint" />
          </mxGeometry>
        </mxCell>
        <mxCell id="xS0EgC6WdhsDoTeQ87Do-12" value="" style="endArrow=none;html=1;rounded=0;" edge="1" parent="1">
          <mxGeometry width="50" height="50" relative="1" as="geometry">
            <mxPoint x="1330" y="680.5" as="sourcePoint" />
            <mxPoint x="1330" y="530.5" as="targetPoint" />
          </mxGeometry>
        </mxCell>
        <mxCell id="xS0EgC6WdhsDoTeQ87Do-13" value="" style="endArrow=classic;html=1;rounded=0;entryX=1;entryY=0.5;entryDx=0;entryDy=0;" edge="1" parent="1" target="xS0EgC6WdhsDoTeQ87Do-7">
          <mxGeometry width="50" height="50" relative="1" as="geometry">
            <mxPoint x="1330" y="530" as="sourcePoint" />
            <mxPoint x="1300" y="490" as="targetPoint" />
          </mxGeometry>
        </mxCell>
        <mxCell id="xS0EgC6WdhsDoTeQ87Do-14" value="" style="endArrow=none;html=1;rounded=0;entryX=0;entryY=0.5;entryDx=0;entryDy=0;" edge="1" parent="1" target="xS0EgC6WdhsDoTeQ87Do-7">
          <mxGeometry width="50" height="50" relative="1" as="geometry">
            <mxPoint x="1120" y="530" as="sourcePoint" />
            <mxPoint x="1170" y="480" as="targetPoint" />
          </mxGeometry>
        </mxCell>
        <mxCell id="xS0EgC6WdhsDoTeQ87Do-15" value="&lt;font face=&quot;Comic Sans MS&quot;&gt;&lt;span style=&quot;font-size: 14px;&quot;&gt;Ya&lt;/span&gt;&lt;/font&gt;&lt;span style=&quot;color: rgba(0, 0, 0, 0); font-family: monospace; font-size: 0px; text-align: start;&quot;&gt;%3CmxGraphModel%3E%3Croot%3E%3CmxCell%20id%3D%220%22%2F%3E%3CmxCell%20id%3D%221%22%20parent%3D%220%22%2F%3E%3CmxCell%20id%3D%222%22%20value%3D%22%26lt%3Bfont%20style%3D%26quot%3Bfont-size%3A%2014px%3B%26quot%3B%20face%3D%26quot%3BComic%20Sans%20MS%26quot%3B%26gt%3B%26lt%3Bspan%20style%3D%26quot%3Btext-wrap-mode%3A%20nowrap%3B%26quot%3B%26gt%3BBerhasil%26amp%3Bnbsp%3B%26lt%3B%2Fspan%26gt%3B%26lt%3B%2Ffont%26gt%3B%26lt%3Bdiv%26gt%3B%26lt%3Bfont%20style%3D%26quot%3Bfont-size%3A%2014px%3B%26quot%3B%20face%3D%26quot%3BComic%20Sans%20MS%26quot%3B%26gt%3B%26lt%3Bspan%20style%3D%26quot%3Btext-wrap-mode%3A%20nowrap%3B%26quot%3B%26gt%3BBaca%20Kartu%3F%26lt%3B%2Fspan%26gt%3B%26lt%3B%2Ffont%26gt%3B%26lt%3B%2Fdiv%26gt%3B%22%20style%3D%22rhombus%3BwhiteSpace%3Dwrap%3Bhtml%3D1%3B%22%20vertex%3D%221%22%20parent%3D%221%22%3E%3CmxGeometry%20x%3D%22275%22%20y%3D%22440%22%20width%3D%22130%22%20height%3D%22120%22%20as%3D%22geometry%22%2F%3E%3C%2FmxCell%3E%3C%2Froot%3E%3C%2FmxGraphModel%3E&lt;/span&gt;" style="text;html=1;align=center;verticalAlign=middle;resizable=0;points=[];autosize=1;strokeColor=none;fillColor=none;" vertex="1" parent="1">
          <mxGeometry x="1080" y="590.5" width="40" height="30" as="geometry" />
        </mxCell>
        <mxCell id="xS0EgC6WdhsDoTeQ87Do-16" value="&lt;font style=&quot;font-size: 14px;&quot; face=&quot;Comic Sans MS&quot;&gt;&lt;span style=&quot;text-wrap-mode: nowrap;&quot;&gt;Berhasil&amp;nbsp;&lt;/span&gt;&lt;/font&gt;&lt;div&gt;&lt;font style=&quot;font-size: 14px;&quot; face=&quot;Comic Sans MS&quot;&gt;&lt;span style=&quot;text-wrap-mode: nowrap;&quot;&gt;Baca Kartu?&lt;/span&gt;&lt;/font&gt;&lt;/div&gt;" style="rhombus;whiteSpace=wrap;html=1;" vertex="1" parent="1">
          <mxGeometry x="1158" y="620.5" width="130" height="120" as="geometry" />
        </mxCell>
        <mxCell id="xS0EgC6WdhsDoTeQ87Do-17" value="" style="endArrow=classic;html=1;rounded=0;exitX=0.5;exitY=1;exitDx=0;exitDy=0;" edge="1" parent="1">
          <mxGeometry width="50" height="50" relative="1" as="geometry">
            <mxPoint x="1223.5" y="740.5" as="sourcePoint" />
            <mxPoint x="1223.5" y="800.5" as="targetPoint" />
          </mxGeometry>
        </mxCell>
        <mxCell id="xS0EgC6WdhsDoTeQ87Do-18" value="&lt;font face=&quot;Comic Sans MS&quot;&gt;&lt;span style=&quot;font-size: 14px; text-wrap-mode: nowrap;&quot;&gt;Tampilkan&amp;nbsp;&lt;/span&gt;&lt;/font&gt;&lt;span style=&quot;font-size: 14px; text-wrap-mode: nowrap; font-family: &amp;quot;Comic Sans MS&amp;quot;; background-color: initial;&quot;&gt;UID Kartu&amp;nbsp;&lt;/span&gt;&lt;div&gt;&lt;span style=&quot;font-size: 14px; text-wrap-mode: nowrap; font-family: &amp;quot;Comic Sans MS&amp;quot;; background-color: initial;&quot;&gt;di Serial Monitor&lt;/span&gt;&lt;/div&gt;" style="rounded=0;whiteSpace=wrap;html=1;" vertex="1" parent="1">
          <mxGeometry x="1145.5" y="800" width="157" height="60" as="geometry" />
        </mxCell>
        <mxCell id="xS0EgC6WdhsDoTeQ87Do-19" value="" style="endArrow=classic;html=1;rounded=0;exitX=0.5;exitY=1;exitDx=0;exitDy=0;" edge="1" parent="1">
          <mxGeometry width="50" height="50" relative="1" as="geometry">
            <mxPoint x="1222.5" y="420" as="sourcePoint" />
            <mxPoint x="1222.5" y="480" as="targetPoint" />
          </mxGeometry>
        </mxCell>
        <mxCell id="xS0EgC6WdhsDoTeQ87Do-20" value="" style="endArrow=classic;html=1;rounded=0;exitX=0.5;exitY=1;exitDx=0;exitDy=0;" edge="1" parent="1">
          <mxGeometry width="50" height="50" relative="1" as="geometry">
            <mxPoint x="1223.5" y="860" as="sourcePoint" />
            <mxPoint x="1223.5" y="920" as="targetPoint" />
          </mxGeometry>
        </mxCell>
        <mxCell id="xS0EgC6WdhsDoTeQ87Do-21" value="&lt;font face=&quot;Comic Sans MS&quot;&gt;&lt;span style=&quot;font-size: 14px; text-wrap-mode: nowrap;&quot;&gt;Cocok&amp;nbsp;&lt;/span&gt;&lt;/font&gt;&lt;div&gt;&lt;font face=&quot;Comic Sans MS&quot;&gt;&lt;span style=&quot;font-size: 14px; text-wrap-mode: nowrap;&quot;&gt;dengan&amp;nbsp;&lt;/span&gt;&lt;/font&gt;&lt;span style=&quot;font-size: 14px; text-wrap-mode: nowrap; font-family: &amp;quot;Comic Sans MS&amp;quot;; background-color: initial;&quot;&gt;UID&amp;nbsp;&lt;/span&gt;&lt;div&gt;&lt;font face=&quot;Comic Sans MS&quot;&gt;&lt;span style=&quot;font-size: 14px; text-wrap-mode: nowrap;&quot;&gt;diizinkan&lt;/span&gt;&lt;/font&gt;&lt;/div&gt;&lt;/div&gt;" style="rhombus;whiteSpace=wrap;html=1;" vertex="1" parent="1">
          <mxGeometry x="1152" y="920" width="142" height="120" as="geometry" />
        </mxCell>
        <mxCell id="xS0EgC6WdhsDoTeQ87Do-22" value="&lt;font face=&quot;Comic Sans MS&quot;&gt;&lt;span style=&quot;font-size: 14px; text-wrap-mode: nowrap;&quot;&gt;Berikan Akses&lt;/span&gt;&lt;/font&gt;&lt;div style=&quot;text-align: left;&quot;&gt;&lt;font face=&quot;Comic Sans MS&quot;&gt;&lt;span style=&quot;font-size: 14px; text-wrap-mode: nowrap;&quot;&gt;- Tampilkan &#39;Access: ALLOW&#39;&lt;/span&gt;&lt;/font&gt;&lt;/div&gt;&lt;div style=&quot;text-align: left;&quot;&gt;&lt;font face=&quot;Comic Sans MS&quot;&gt;&lt;span style=&quot;font-size: 14px; text-wrap-mode: nowrap;&quot;&gt;- LED Menyala (3 detik)&lt;/span&gt;&lt;/font&gt;&lt;/div&gt;" style="rounded=0;whiteSpace=wrap;html=1;" vertex="1" parent="1">
          <mxGeometry x="1112" y="1100" width="208" height="80" as="geometry" />
        </mxCell>
        <mxCell id="xS0EgC6WdhsDoTeQ87Do-23" value="" style="endArrow=classic;html=1;rounded=0;exitX=0.5;exitY=1;exitDx=0;exitDy=0;" edge="1" parent="1">
          <mxGeometry width="50" height="50" relative="1" as="geometry">
            <mxPoint x="1223.5" y="1040" as="sourcePoint" />
            <mxPoint x="1223.5" y="1100" as="targetPoint" />
          </mxGeometry>
        </mxCell>
        <mxCell id="xS0EgC6WdhsDoTeQ87Do-24" value="" style="endArrow=classic;html=1;rounded=0;exitX=0.5;exitY=1;exitDx=0;exitDy=0;" edge="1" parent="1">
          <mxGeometry width="50" height="50" relative="1" as="geometry">
            <mxPoint x="1223.5" y="1180" as="sourcePoint" />
            <mxPoint x="1223.5" y="1240" as="targetPoint" />
          </mxGeometry>
        </mxCell>
        <mxCell id="xS0EgC6WdhsDoTeQ87Do-25" value="&lt;font face=&quot;Comic Sans MS&quot;&gt;&lt;span style=&quot;font-size: 14px; text-wrap-mode: nowrap;&quot;&gt;Kembali ke Tampilan&lt;/span&gt;&lt;/font&gt;&lt;div&gt;&lt;font face=&quot;Comic Sans MS&quot;&gt;&lt;span style=&quot;font-size: 14px; text-wrap-mode: nowrap;&quot;&gt;&#39;Scan your card&#39;&lt;/span&gt;&lt;/font&gt;&lt;/div&gt;" style="rounded=0;whiteSpace=wrap;html=1;" vertex="1" parent="1">
          <mxGeometry x="1144.5" y="1240" width="157" height="60" as="geometry" />
        </mxCell>
        <mxCell id="xS0EgC6WdhsDoTeQ87Do-26" value="" style="endArrow=none;html=1;rounded=0;" edge="1" parent="1">
          <mxGeometry width="50" height="50" relative="1" as="geometry">
            <mxPoint x="1301.5" y="1280" as="sourcePoint" />
            <mxPoint x="1430" y="1280" as="targetPoint" />
          </mxGeometry>
        </mxCell>
        <mxCell id="xS0EgC6WdhsDoTeQ87Do-27" value="" style="endArrow=none;html=1;rounded=0;" edge="1" parent="1">
          <mxGeometry width="50" height="50" relative="1" as="geometry">
            <mxPoint x="1430" y="1280" as="sourcePoint" />
            <mxPoint x="1430" y="520" as="targetPoint" />
          </mxGeometry>
        </mxCell>
        <mxCell id="xS0EgC6WdhsDoTeQ87Do-28" value="" style="endArrow=classic;html=1;rounded=0;entryX=0.862;entryY=0.38;entryDx=0;entryDy=0;entryPerimeter=0;" edge="1" parent="1" target="xS0EgC6WdhsDoTeQ87Do-7">
          <mxGeometry width="50" height="50" relative="1" as="geometry">
            <mxPoint x="1430" y="520" as="sourcePoint" />
            <mxPoint x="1270" y="520" as="targetPoint" />
          </mxGeometry>
        </mxCell>
        <mxCell id="xS0EgC6WdhsDoTeQ87Do-29" value="&#xa;&lt;span style=&quot;color: rgb(0, 0, 0); font-family: &amp;quot;Comic Sans MS&amp;quot;; font-size: 14px; font-style: normal; font-variant-ligatures: normal; font-variant-caps: normal; font-weight: 400; letter-spacing: normal; orphans: 2; text-align: center; text-indent: 0px; text-transform: none; widows: 2; word-spacing: 0px; -webkit-text-stroke-width: 0px; white-space: normal; background-color: rgb(251, 251, 251); text-decoration-thickness: initial; text-decoration-style: initial; text-decoration-color: initial; display: inline !important; float: none;&quot;&gt;Mulai&lt;/span&gt;&#xa;&#xa;" style="ellipse;whiteSpace=wrap;html=1;" vertex="1" parent="1">
          <mxGeometry x="1163" y="40" width="120" height="80" as="geometry" />
        </mxCell>
      </root>
    </mxGraphModel>
  </diagram>
</mxfile>
